<svg width="40" height="40" viewBox="0 0 40 40" fill="none" xmlns="http://www.w3.org/2000/svg"><path fill-rule="evenodd" clip-rule="evenodd" d="M8.606 16.087h4.677V30.91H8.606V16.087Zm2.22-1.853h-.035C9.098 14.234 8 13.1 8 11.664c0-1.464 1.13-2.573 2.857-2.573 1.726 0 2.788 1.106 2.821 2.57 0 1.435-1.095 2.573-2.853 2.573ZM32 30.909h-5.306v-7.67c0-2.008-.83-3.378-2.654-3.378-1.396 0-2.172.925-2.534 1.816-.135.32-.112.766-.112 1.211v8.02h-5.255v-14.82h5.255v2.325c.31-1.017 1.99-2.468 4.67-2.468 3.324 0 5.936 2.131 5.936 6.722v8.242Z" fill="#007EBB"/></svg>